<mxfile>
    <diagram id="OYqkTKZ24ruUyNLx62ju" name="Page-1">
        <mxGraphModel dx="948" dy="800" grid="1" gridSize="10" guides="1" tooltips="1" connect="1" arrows="1" fold="1" page="1" pageScale="1" pageWidth="827" pageHeight="1169" math="0" shadow="0">
            <root>
                <mxCell id="0"/>
                <mxCell id="1" parent="0"/>
                <mxCell id="2" value="&lt;font style=&quot;font-size: 26px&quot; face=&quot;Verdana&quot;&gt;&lt;b&gt;Y&lt;/b&gt;&lt;/font&gt;" style="ellipse;whiteSpace=wrap;html=1;aspect=fixed;fillColor=#e3c800;strokeColor=#B09500;fontColor=#ffffff;direction=south;" parent="1" vertex="1">
                    <mxGeometry width="64" height="64" as="geometry"/>
                </mxCell>
            </root>
        </mxGraphModel>
    </diagram>
</mxfile>